<svg width="40" height="40" viewBox="0 0 40 40" fill="none" xmlns="http://www.w3.org/2000/svg">
<g clip-path="url(#clip0_52_214)">
<path d="M33.8617 7.48679C31.3117 6.33679 28.5784 5.48679 25.7201 5.00345C25.6946 4.99857 25.6683 5.00171 25.6447 5.01246C25.6211 5.02321 25.6014 5.04103 25.5884 5.06345C25.2384 5.67845 24.8484 6.48012 24.5751 7.11345C21.5436 6.66051 18.4616 6.66051 15.4301 7.11345C15.1256 6.41155 14.7823 5.72716 14.4017 5.06345C14.3888 5.04076 14.3693 5.02254 14.3458 5.01122C14.3223 4.9999 14.2959 4.99603 14.2701 5.00012C11.4134 5.48345 8.68007 6.33345 6.1284 7.48512C6.10645 7.49433 6.08784 7.51003 6.07507 7.53012C0.888402 15.1551 -0.533265 22.5918 0.165069 29.9351C0.167012 29.9531 0.172595 29.9705 0.181477 29.9863C0.190359 30.002 0.202355 30.0158 0.216735 30.0268C3.24406 32.2308 6.62063 33.9098 10.2051 34.9935C10.2301 35.0011 10.2568 35.0011 10.2818 34.9934C10.3067 34.9857 10.3288 34.9706 10.3451 34.9501C11.1164 33.9186 11.7999 32.8242 12.3884 31.6785C12.3966 31.6628 12.4013 31.6455 12.4022 31.6279C12.4031 31.6103 12.4003 31.5926 12.3938 31.5762C12.3873 31.5598 12.3774 31.5449 12.3646 31.5326C12.3519 31.5204 12.3367 31.511 12.3201 31.5051C11.2434 31.0997 10.2002 30.6104 9.20007 30.0418C9.1821 30.0315 9.16695 30.017 9.156 29.9994C9.14504 29.9819 9.13861 29.9619 9.13729 29.9412C9.13597 29.9206 9.13979 29.8999 9.14842 29.8811C9.15705 29.8623 9.17022 29.8459 9.18674 29.8335C9.39674 29.6784 9.60674 29.5168 9.80674 29.3551C9.82474 29.3406 9.84642 29.3313 9.86938 29.3284C9.89233 29.3254 9.91565 29.3289 9.93674 29.3385C16.4817 32.2785 23.5701 32.2785 30.0384 29.3385C30.0595 29.3284 30.0831 29.3244 30.1064 29.3271C30.1297 29.3297 30.1517 29.3389 30.1701 29.3535C30.3701 29.5168 30.5784 29.6784 30.7901 29.8335C30.8067 29.8457 30.8201 29.8618 30.829 29.8805C30.8379 29.8991 30.8421 29.9197 30.8411 29.9403C30.8401 29.9609 30.834 29.981 30.8234 29.9987C30.8127 30.0164 30.7978 30.0312 30.7801 30.0418C29.7834 30.6151 28.7467 31.1001 27.6584 31.5035C27.6417 31.5095 27.6265 31.5191 27.6137 31.5315C27.601 31.5439 27.5911 31.5589 27.5846 31.5755C27.5781 31.592 27.5753 31.6098 27.5762 31.6276C27.5772 31.6453 27.5819 31.6627 27.5901 31.6785C28.1901 32.8235 28.8767 33.9135 29.6317 34.9485C29.6474 34.9697 29.6693 34.9856 29.6944 34.9939C29.7194 35.0023 29.7464 35.0027 29.7717 34.9951C33.3623 33.9145 36.7444 32.2347 39.7751 30.0268C39.7899 30.0164 39.8023 30.0031 39.8115 29.9875C39.8207 29.972 39.8264 29.9547 39.8284 29.9368C40.6617 21.4468 38.4317 14.0701 33.9134 7.53345C33.9023 7.51221 33.884 7.49565 33.8617 7.48679ZM13.3667 25.4635C11.3967 25.4635 9.77174 23.6818 9.77174 21.4968C9.77174 19.3101 11.3651 17.5301 13.3667 17.5301C15.3834 17.5301 16.9934 19.3251 16.9617 21.4968C16.9617 23.6835 15.3684 25.4635 13.3667 25.4635ZM26.6584 25.4635C24.6867 25.4635 23.0634 23.6818 23.0634 21.4968C23.0634 19.3101 24.6551 17.5301 26.6584 17.5301C28.6751 17.5301 30.2851 19.3251 30.2534 21.4968C30.2534 23.6835 28.6767 25.4635 26.6584 25.4635Z" fill="black"/>
</g>
<defs>
<clipPath id="clip0_52_214">
<rect width="40" height="40" fill="white"/>
</clipPath>
</defs>
</svg>
