<svg width="15" height="15" viewBox="0 0 15 15" fill="none" xmlns="http://www.w3.org/2000/svg">
<g clip-path="url(#clip0_136_101)">
<path d="M12.6982 2.80761C11.7419 2.37636 10.7169 2.05761 9.64506 1.87636C9.63551 1.87452 9.62563 1.8757 9.61678 1.87974C9.60794 1.88377 9.60056 1.89045 9.59568 1.89886C9.46443 2.12948 9.31818 2.43011 9.21568 2.66761C8.07887 2.49775 6.92312 2.49775 5.78631 2.66761C5.67214 2.40439 5.5434 2.14775 5.40068 1.89886C5.39584 1.89034 5.38853 1.88351 5.3797 1.87927C5.37088 1.87502 5.36098 1.87357 5.35131 1.87511C4.28006 2.05636 3.25506 2.37511 2.29818 2.80698C2.28995 2.81043 2.28297 2.81632 2.27818 2.82386C0.333181 5.68323 -0.199944 8.47198 0.0619313 11.2257C0.06266 11.2325 0.0647535 11.239 0.0680843 11.2449C0.0714152 11.2508 0.0759138 11.256 0.0813062 11.2601C1.21655 12.0866 2.48277 12.7162 3.82693 13.1226C3.8363 13.1255 3.84632 13.1255 3.85569 13.1226C3.86506 13.1197 3.87333 13.114 3.87943 13.1064C4.16868 12.7195 4.42499 12.3091 4.64568 11.8795C4.64874 11.8736 4.65051 11.8671 4.65086 11.8605C4.65121 11.8539 4.65013 11.8473 4.6477 11.8411C4.64527 11.835 4.64154 11.8294 4.63677 11.8248C4.63201 11.8202 4.6263 11.8167 4.62006 11.8145C4.21631 11.6624 3.82511 11.479 3.45006 11.2657C3.44332 11.2619 3.43764 11.2564 3.43353 11.2498C3.42942 11.2433 3.42701 11.2358 3.42651 11.228C3.42602 11.2203 3.42745 11.2125 3.43069 11.2055C3.43393 11.1984 3.43886 11.1923 3.44506 11.1876C3.52381 11.1295 3.60256 11.0689 3.67756 11.0082C3.68431 11.0028 3.69244 10.9993 3.70105 10.9982C3.70965 10.9971 3.7184 10.9984 3.72631 11.002C6.18068 12.1045 8.83881 12.1045 11.2644 11.002C11.2724 10.9982 11.2812 10.9967 11.2899 10.9977C11.2987 10.9987 11.3069 11.0021 11.3138 11.0076C11.3888 11.0689 11.4669 11.1295 11.5463 11.1876C11.5526 11.1922 11.5576 11.1982 11.5609 11.2052C11.5643 11.2122 11.5658 11.2199 11.5654 11.2277C11.5651 11.2354 11.5628 11.2429 11.5588 11.2496C11.5548 11.2562 11.5492 11.2618 11.5426 11.2657C11.1688 11.4807 10.7801 11.6626 10.3719 11.8139C10.3657 11.8161 10.36 11.8197 10.3552 11.8244C10.3504 11.829 10.3467 11.8347 10.3443 11.8409C10.3418 11.8471 10.3408 11.8537 10.3411 11.8604C10.3415 11.8671 10.3432 11.8736 10.3463 11.8795C10.5713 12.3089 10.8288 12.7176 11.1119 13.1057C11.1178 13.1137 11.126 13.1196 11.1354 13.1228C11.1448 13.1259 11.1549 13.1261 11.1644 13.1232C12.5109 12.718 13.7792 12.0881 14.9157 11.2601C14.9212 11.2562 14.9259 11.2512 14.9293 11.2454C14.9328 11.2396 14.9349 11.2331 14.9357 11.2264C15.2482 8.04261 14.4119 5.27636 12.7176 2.82511C12.7134 2.81714 12.7065 2.81093 12.6982 2.80761ZM5.01256 9.54886C4.27381 9.54886 3.66443 8.88073 3.66443 8.06136C3.66443 7.24136 4.26193 6.57386 5.01256 6.57386C5.76881 6.57386 6.37256 7.24698 6.36068 8.06136C6.36068 8.88136 5.76318 9.54886 5.01256 9.54886V9.54886ZM9.99693 9.54886C9.25756 9.54886 8.64881 8.88073 8.64881 8.06136C8.64881 7.24136 9.24568 6.57386 9.99693 6.57386C10.7532 6.57386 11.3569 7.24698 11.3451 8.06136C11.3451 8.88136 10.7538 9.54886 9.99693 9.54886V9.54886Z" fill="black"/>
</g>
<defs>
<clipPath id="clip0_136_101">
<rect width="15" height="15" fill="white"/>
</clipPath>
</defs>
</svg>
