<svg width="13" height="13" viewBox="0 0 13 13" fill="none" xmlns="http://www.w3.org/2000/svg">
<path d="M13 1.21875C13 0.895518 12.8288 0.585524 12.5241 0.356964C12.2193 0.128404 11.806 1.20381e-07 11.3751 1.20381e-07L1.62563 1.20381e-07C1.41218 -7.10326e-05 1.20081 0.0314004 1.00358 0.0926165C0.806358 0.153833 0.627143 0.243594 0.47618 0.356772C0.325216 0.469951 0.205461 0.604329 0.123757 0.75223C0.0420528 0.900131 -4.76834e-07 1.05866 -4.76834e-07 1.21875L-4.76834e-07 11.7813C-4.76834e-07 12.1045 0.171196 12.4145 0.475925 12.643C0.780655 12.8716 1.19396 13 1.62491 13L11.3744 13C11.8053 13 12.2186 12.8716 12.5234 12.643C12.8281 12.4145 12.9993 12.1045 12.9993 11.7813L12.9993 1.21875H13ZM10.2261 6.786L7.8754 8.54913C7.7732 8.62309 7.63635 8.66399 7.49434 8.66302C7.35232 8.66204 7.2165 8.61927 7.11612 8.54391C7.01574 8.46855 6.95884 8.36664 6.95768 8.26012C6.95651 8.1536 7.01117 8.051 7.10988 7.97442L8.53547 6.90517L3.15738 6.90517C3.01373 6.90517 2.87596 6.86237 2.77438 6.78618C2.67281 6.70999 2.61574 6.60666 2.61574 6.49892C2.61574 6.39117 2.67281 6.28784 2.77438 6.21165C2.87596 6.13547 3.01373 6.09267 3.15738 6.09267L8.53403 6.09267L7.10988 5.02558C7.05813 4.98813 7.01684 4.94331 6.98842 4.89376C6.96 4.84421 6.94503 4.7909 6.94437 4.73696C6.94371 4.68302 6.95738 4.62952 6.98458 4.57959C7.01179 4.52965 7.05198 4.48428 7.10281 4.44612C7.15364 4.40795 7.21409 4.37777 7.28065 4.35732C7.3472 4.33687 7.41851 4.32656 7.49043 4.32701C7.56235 4.32745 7.63343 4.33863 7.69953 4.3599C7.76562 4.38116 7.82541 4.41209 7.8754 4.45088L10.2254 6.21129C10.2757 6.24902 10.3156 6.29382 10.3429 6.34312C10.3701 6.39243 10.3841 6.44528 10.3841 6.49865C10.3841 6.55202 10.3701 6.60487 10.3429 6.65417C10.3156 6.70348 10.2757 6.74827 10.2254 6.786H10.2261Z" fill="black"/>
</svg>
