<svg width="21" height="21" viewBox="0 0 21 21" fill="none" xmlns="http://www.w3.org/2000/svg">
<path d="M9.79 0.75225C10.285 -0.25075 11.716 -0.25075 12.211 0.75225L14.569 5.53025L19.841 6.29625C20.949 6.45625 21.391 7.81825 20.59 8.59925L16.774 12.3183L17.675 17.5682C17.865 18.6722 16.707 19.5132 15.716 18.9922L11.758 16.9122C12.1072 15.674 12.0811 14.36 11.683 13.1365C11.2849 11.9131 10.5327 10.8354 9.52166 10.0398C8.51061 9.24414 7.28618 8.76647 6.00346 8.66722C4.72073 8.56798 3.43741 8.85163 2.316 9.48225L1.411 8.59925C0.61 7.81825 1.052 6.45725 2.159 6.29625L7.432 5.53025L9.79 0.75225ZM11 15.1503C11 15.8725 10.8577 16.5877 10.5813 17.255C10.3049 17.9223 9.89981 18.5286 9.38909 19.0393C8.87837 19.5501 8.27205 19.9552 7.60476 20.2316C6.93747 20.508 6.22227 20.6502 5.5 20.6502C4.77773 20.6502 4.06253 20.508 3.39524 20.2316C2.72795 19.9552 2.12163 19.5501 1.61091 19.0393C1.10019 18.5286 0.695063 17.9223 0.418663 17.255C0.142262 16.5877 -1.07627e-08 15.8725 0 15.1503C2.17362e-08 13.6916 0.579463 12.2926 1.61091 11.2612C2.64236 10.2297 4.04131 9.65025 5.5 9.65025C6.95869 9.65025 8.35764 10.2297 9.38909 11.2612C10.4205 12.2926 11 13.6916 11 15.1503ZM2.5 14.6503C2.36739 14.6503 2.24021 14.7029 2.14645 14.7967C2.05268 14.8905 2 15.0176 2 15.1503C2 15.2829 2.05268 15.41 2.14645 15.5038C2.24021 15.5976 2.36739 15.6503 2.5 15.6503H7.293L5.646 17.2962C5.55225 17.3901 5.49963 17.5174 5.49972 17.6501C5.49982 17.7828 5.55261 17.91 5.6465 18.0037C5.74039 18.0975 5.86767 18.1501 6.00035 18.15C6.13304 18.1499 6.26025 18.0971 6.354 18.0033L8.854 15.5033C8.94774 15.4095 9.00039 15.2823 9.00039 15.1498C9.00039 15.0172 8.94774 14.89 8.854 14.7963L6.354 12.2963C6.26025 12.2024 6.13304 12.1496 6.00035 12.1495C5.86767 12.1494 5.74039 12.202 5.6465 12.2958C5.55261 12.3895 5.49982 12.5167 5.49972 12.6494C5.49963 12.7821 5.55225 12.9094 5.646 13.0033L7.293 14.6503H2.5Z" fill="black"/>
</svg>
