<svg width="15" height="15" viewBox="0 0 15 15" fill="none" xmlns="http://www.w3.org/2000/svg">
<path d="M14.7769 3.08573C14.2551 3.31698 13.6944 3.47323 13.1051 3.54386C13.7132 3.17998 14.1682 2.60728 14.3851 1.93261C13.8137 2.27198 13.1884 2.51086 12.5363 2.63886C12.0978 2.17065 11.517 1.86031 10.884 1.75603C10.2511 1.65175 9.60138 1.75935 9.03584 2.06214C8.4703 2.36493 8.02055 2.84596 7.75641 3.43055C7.49228 4.01514 7.42853 4.67058 7.57507 5.29511C6.41737 5.23698 5.28484 4.93608 4.25096 4.41192C3.21708 3.88777 2.30497 3.15208 1.57382 2.25261C1.32382 2.68386 1.18007 3.18386 1.18007 3.71636C1.17979 4.19573 1.29784 4.66776 1.52374 5.09057C1.74965 5.51337 2.07642 5.87388 2.47507 6.14011C2.01274 6.1254 1.56061 6.00047 1.15632 5.77573V5.81323C1.15627 6.48557 1.38884 7.13722 1.81456 7.65761C2.24028 8.17799 2.83293 8.53507 3.49194 8.66823C3.06306 8.78431 2.6134 8.8014 2.17694 8.71823C2.36288 9.29674 2.72507 9.80263 3.2128 10.1651C3.70053 10.5275 4.28939 10.7283 4.89694 10.7395C3.86559 11.5491 2.59187 11.9883 1.28069 11.9864C1.04843 11.9864 0.816366 11.9729 0.585693 11.9457C1.91662 12.8015 3.46591 13.2556 5.04819 13.2539C10.4044 13.2539 13.3326 8.81761 13.3326 4.97011C13.3326 4.84511 13.3294 4.71886 13.3238 4.59386C13.8934 4.18197 14.385 3.67192 14.7757 3.08761L14.7769 3.08573V3.08573Z" fill="black"/>
</svg>
